<?xml version="1.0" encoding="UTF-8" standalone="no"?>
<svg
   xmlns:dc="http://purl.org/dc/elements/1.1/"
   xmlns:cc="http://creativecommons.org/ns#"
   xmlns:rdf="http://www.w3.org/1999/02/22-rdf-syntax-ns#"
   xmlns:svg="http://www.w3.org/2000/svg"
   xmlns="http://www.w3.org/2000/svg"
   width="206.25143"
   height="52.864376"
   viewBox="0 0 54.570693 13.987033"
   version="1.1"
   id="svg8">
  <defs
     id="defs2" />
  <metadata
     id="metadata5">
    <rdf:RDF>
      <cc:Work
         rdf:about="">
        <dc:format>image/svg+xml</dc:format>
        <dc:type
           rdf:resource="http://purl.org/dc/dcmitype/StillImage" />
        <dc:title></dc:title>
      </cc:Work>
    </rdf:RDF>
  </metadata>
  <g
     id="layer1"
     transform="translate(-6.5813213,-26.873151)">
    <g
       aria-label="zigtools."
       id="text839-7"
       style="font-style:normal;font-weight:normal;font-size:15.3031px;line-height:1.25;font-family:sans-serif;letter-spacing:-0.956447px;fill:white;fill-opacity:1;stroke:none;stroke-width:0.478223;stroke-miterlimit:4;stroke-dasharray:none;stroke-opacity:1">
      <path
         d="m 6.5813213,37.799564 v -2.295465 l 4.1624427,-3.4585 v -0.24485 H 6.7343523 v -1.591522 h 6.1212397 v 2.295465 l -4.1624429,3.4585 v 0.24485 h 4.2848679 v 1.591522 z"
         style="font-style:normal;font-variant:normal;font-weight:bold;font-stretch:normal;font-family:'Space Grotesk';-inkscape-font-specification:'Space Grotesk Bold';fill:white;fill-opacity:1;stroke:none;stroke-width:0.478223;stroke-miterlimit:4;stroke-dasharray:none;stroke-opacity:1"
         id="path833" />
      <path
         d="m 13.82733,37.799564 v -7.590337 h 1.928191 v 7.590337 z m 0.964095,-8.477917 q -0.520305,0 -0.887579,-0.336668 -0.351972,-0.336668 -0.351972,-0.88758 0,-0.550911 0.351972,-0.88758 0.367274,-0.336668 0.887579,-0.336668 0.535609,0 0.88758,0.336668 0.351971,0.336669 0.351971,0.88758 0,0.550912 -0.351971,0.88758 -0.351971,0.336668 -0.88758,0.336668 z"
         style="font-style:normal;font-variant:normal;font-weight:bold;font-stretch:normal;font-family:'Space Grotesk';-inkscape-font-specification:'Space Grotesk Bold';fill:white;fill-opacity:1;stroke:none;stroke-width:0.478223;stroke-miterlimit:4;stroke-dasharray:none;stroke-opacity:1"
         id="path835" />
      <path
         d="m 16.574216,34.035002 v -0.24485 q 0,-1.193642 0.474396,-2.035312 0.474396,-0.856974 1.254854,-1.300763 0.795761,-0.459093 1.72925,-0.459093 1.040611,0 1.576219,0.367274 0.535609,0.367274 0.780459,0.765155 h 0.275455 v -0.918186 h 1.897585 v 8.93701 q 0,0.780458 -0.459093,1.239551 -0.459093,0.474396 -1.224248,0.474396 h -5.080629 v -1.683341 h 4.407292 q 0.428487,0 0.428487,-0.459093 v -1.9741 h -0.275456 q -0.153031,0.24485 -0.428486,0.505003 -0.275456,0.244849 -0.734549,0.413183 -0.459093,0.168335 -1.163036,0.168335 -0.933489,0 -1.72925,-0.44379 -0.780458,-0.459093 -1.254854,-1.300764 -0.474396,-0.856973 -0.474396,-2.050615 z m 4.009412,2.111828 q 0.88758,0 1.4844,-0.566215 0.596821,-0.566215 0.596821,-1.591522 v -0.153031 q 0,-1.040611 -0.596821,-1.591523 -0.581517,-0.566214 -1.4844,-0.566214 -0.88758,0 -1.484401,0.566214 -0.596821,0.550912 -0.596821,1.591523 v 0.153031 q 0,1.025307 0.596821,1.591522 0.596821,0.566215 1.484401,0.566215 z"
         style="font-style:normal;font-variant:normal;font-weight:bold;font-stretch:normal;font-family:'Space Grotesk';-inkscape-font-specification:'Space Grotesk Bold';fill:white;fill-opacity:1;stroke:none;stroke-width:0.478223;stroke-miterlimit:4;stroke-dasharray:none;stroke-opacity:1"
         id="path837" />
      <path
         d="m 28.655989,37.799564 q -0.749852,0 -1.224248,-0.459093 -0.459093,-0.474396 -0.459093,-1.254854 v -4.284868 h -1.897585 v -1.591522 h 1.897585 V 27.85255 h 1.92819 v 2.356677 h 2.081222 v 1.591522 h -2.081222 v 3.9482 q 0,0.459093 0.428487,0.459093 h 1.469098 v 1.591522 z"
         style="font-style:normal;font-variant:normal;font-weight:bold;font-stretch:normal;font-family:'Space Grotesk';-inkscape-font-specification:'Space Grotesk Bold';fill:white;fill-opacity:1;stroke:none;stroke-width:0.478223;stroke-miterlimit:4;stroke-dasharray:none;stroke-opacity:1"
         id="path839" />
      <path
         d="m 35.106208,38.013808 q -1.132429,0 -2.035312,-0.459093 -0.902883,-0.459093 -1.423188,-1.33137 -0.520306,-0.872277 -0.520306,-2.096525 v -0.244849 q 0,-1.224248 0.520306,-2.096525 0.520305,-0.872276 1.423188,-1.331369 0.902883,-0.459093 2.035312,-0.459093 1.132429,0 2.035312,0.459093 0.902883,0.459093 1.423189,1.331369 0.520305,0.872277 0.520305,2.096525 v 0.244849 q 0,1.224248 -0.520305,2.096525 -0.520306,0.872277 -1.423189,1.33137 -0.902883,0.459093 -2.035312,0.459093 z m 0,-1.713947 q 0.88758,0 1.469098,-0.566215 0.581517,-0.581518 0.581517,-1.652735 V 33.92788 q 0,-1.071217 -0.581517,-1.637432 -0.566215,-0.581517 -1.469098,-0.581517 -0.88758,0 -1.469098,0.581517 -0.581517,0.566215 -0.581517,1.637432 v 0.153031 q 0,1.071217 0.581517,1.652735 0.581518,0.566215 1.469098,0.566215 z"
         style="font-style:normal;font-variant:normal;font-weight:bold;font-stretch:normal;font-family:'Space Grotesk';-inkscape-font-specification:'Space Grotesk Bold';fill:white;fill-opacity:1;stroke:none;stroke-width:0.478223;stroke-miterlimit:4;stroke-dasharray:none;stroke-opacity:1"
         id="path841" />
      <path
         d="m 43.515252,38.013808 q -1.132429,0 -2.035312,-0.459093 -0.902883,-0.459093 -1.423188,-1.33137 -0.520306,-0.872277 -0.520306,-2.096525 v -0.244849 q 0,-1.224248 0.520306,-2.096525 0.520305,-0.872276 1.423188,-1.331369 0.902883,-0.459093 2.035312,-0.459093 1.13243,0 2.035313,0.459093 0.902882,0.459093 1.423188,1.331369 0.520305,0.872277 0.520305,2.096525 v 0.244849 q 0,1.224248 -0.520305,2.096525 -0.520306,0.872277 -1.423188,1.33137 -0.902883,0.459093 -2.035313,0.459093 z m 0,-1.713947 q 0.88758,0 1.469098,-0.566215 0.581518,-0.581518 0.581518,-1.652735 V 33.92788 q 0,-1.071217 -0.581518,-1.637432 -0.566215,-0.581517 -1.469098,-0.581517 -0.887579,0 -1.469097,0.581517 -0.581518,0.566215 -0.581518,1.637432 v 0.153031 q 0,1.071217 0.581518,1.652735 0.581518,0.566215 1.469097,0.566215 z"
         style="font-style:normal;font-variant:normal;font-weight:bold;font-stretch:normal;font-family:'Space Grotesk';-inkscape-font-specification:'Space Grotesk Bold';fill:white;fill-opacity:1;stroke:none;stroke-width:0.478223;stroke-miterlimit:4;stroke-dasharray:none;stroke-opacity:1"
         id="path843" />
      <path
         d="M 48.312763,37.799564 V 27.087395 h 1.928191 v 10.712169 z"
         style="font-style:normal;font-variant:normal;font-weight:bold;font-stretch:normal;font-family:'Space Grotesk';-inkscape-font-specification:'Space Grotesk Bold';fill:white;fill-opacity:1;stroke:none;stroke-width:0.478223;stroke-miterlimit:4;stroke-dasharray:none;stroke-opacity:1"
         id="path845" />
      <path
         d="m 54.57936,38.013808 q -1.4844,0 -2.433193,-0.64273 -0.948792,-0.642731 -1.147732,-1.836372 l 1.77516,-0.459093 q 0.107121,0.535608 0.351971,0.84167 0.260153,0.306062 0.627427,0.44379 0.382577,0.122425 0.826367,0.122425 0.673337,0 0.994702,-0.229547 0.321365,-0.244849 0.321365,-0.596821 0,-0.351971 -0.306062,-0.535608 -0.306062,-0.19894 -0.979399,-0.321365 l -0.428486,-0.07652 q -0.795761,-0.153031 -1.453795,-0.413183 -0.658033,-0.275456 -1.055914,-0.749852 -0.39788,-0.474396 -0.39788,-1.224248 0,-1.13243 0.826367,-1.72925 0.826368,-0.612124 2.17304,-0.612124 1.270158,0 2.111828,0.566214 0.841671,0.566215 1.101823,1.484401 l -1.790462,0.550911 q -0.122425,-0.581517 -0.505003,-0.826367 -0.367274,-0.244849 -0.918186,-0.244849 -0.550911,0 -0.84167,0.19894 -0.290759,0.183637 -0.290759,0.520305 0,0.367275 0.306062,0.550912 0.306062,0.168334 0.826367,0.260152 l 0.428487,0.07652 q 0.856974,0.153031 1.545613,0.413184 0.703943,0.244849 1.101823,0.719245 0.413184,0.459093 0.413184,1.254855 0,1.193641 -0.872277,1.851675 -0.856973,0.64273 -2.310768,0.64273 z"
         style="font-style:normal;font-variant:normal;font-weight:bold;font-stretch:normal;font-family:'Space Grotesk';-inkscape-font-specification:'Space Grotesk Bold';fill:white;fill-opacity:1;stroke:none;stroke-width:0.478223;stroke-miterlimit:4;stroke-dasharray:none;stroke-opacity:1"
         id="path847" />
      <path
         d="m 59.698218,38.013808 q -0.612124,0 -1.040611,-0.397881 -0.413184,-0.413184 -0.413184,-1.055914 0,-0.64273 0.413184,-1.04061 0.428487,-0.413184 1.040611,-0.413184 0.627427,0 1.040611,0.413184 0.413183,0.39788 0.413183,1.04061 0,0.64273 -0.413183,1.055914 -0.413184,0.397881 -1.040611,0.397881 z"
         style="fill:#f7a41d;fill-opacity:1;stroke-width:0.478223"
         id="path849" />
    </g>
  </g>
</svg>
