<svg xmlns="http://www.w3.org/2000/svg" width="181" height="20" fill-rule="evenodd" stroke-linejoin="round" stroke-miterlimit="2" clip-rule="evenodd" viewBox="0 0 181 20"><path fill="url(#1)" d="M70 0H3C1.343 0 0 1.343 0 3v14c0 1.657 1.343 3 3 3h67V0z"/><path fill="url(#2)" d="M181 3.048c0-.808-.321-1.584-.893-2.155C179.536.321 178.76 0 177.952 0H70v20h107.952c.808 0 1.584-.321 2.155-.893.572-.571.893-1.347.893-2.155V3.048z"/><path fill="none" stroke="#f5a300" stroke-width="1.6" d="M18.783 10.473c1.421-1.42 1.785-3.599.903-5.405l-3.141 3.135c-.232.232-.614.232-.845 0l-1.338-1.335c-.113-.112-.176-.264-.176-.423 0-.158.063-.31.176-.423l3.14-3.134c-1.809-.874-3.987-.508-5.41.909-1.31 1.31-1.733 3.273-1.078 5.005l-5.552 5.54c-.355.355-.555.837-.555 1.338 0 .502.2.984.555 1.338l.002.002c.751.749 1.966.75 2.717.001l5.513-5.495c1.751.691 3.755.276 5.089-1.053z"/><text x="23.775" y="14.564" fill="#010101" fill-opacity=".3" font-family="'Verdana',sans-serif" font-size="10.833">zigtools</text><text x="74.548" y="14.544" fill="#010101" fill-opacity=".3" font-family="'Verdana',sans-serif" font-size="10.833">for all of ziguanity</text><text x="23.775" y="13.303" fill="#fff" font-family="'Verdana',sans-serif" font-size="10.833">zigtools</text><text x="74.548" y="13.284" fill="#fff" font-family="'Verdana',sans-serif" font-size="10.833">for all of ziguanity</text><defs><linearGradient id="1" x1="0" x2="1" y1="0" y2="0" gradientTransform="matrix(0 20 -20 0 37 0)" gradientUnits="userSpaceOnUse"><stop offset="0" stop-color="#444d56"/><stop offset="1" stop-color="#24292e"/></linearGradient><linearGradient id="2" x1="0" x2="1" y1="0" y2="0" gradientTransform="matrix(0 20 -20 0 104 0)" gradientUnits="userSpaceOnUse"><stop offset="0" stop-color="#e3981e"/><stop offset="1" stop-color="#c77112"/></linearGradient></defs></svg>
