<?xml version="1.0" encoding="UTF-8"?>
<svg width="475.77" height="139.86" version="1.1" viewBox="0 0 125.88 37.006" xmlns="http://www.w3.org/2000/svg" xmlns:cc="http://creativecommons.org/ns#" xmlns:dc="http://purl.org/dc/elements/1.1/" xmlns:rdf="http://www.w3.org/1999/02/22-rdf-syntax-ns#">
 <metadata>
  <rdf:RDF>
   <cc:Work rdf:about="">
    <dc:format>image/svg+xml</dc:format>
    <dc:type rdf:resource="http://purl.org/dc/dcmitype/StillImage"/>
    <dc:title/>
   </cc:Work>
  </rdf:RDF>
 </metadata>
 <g transform="translate(-4.3455 -50.664)">
  <g transform="translate(67.635 -26.611)" fill="#f7a41d" stroke-width="1.1227" aria-label="ZLS">
   <path d="m-62.391 113.61q-0.35928-0.9431-0.58383-2.4251-0.22455-1.5269-0.26946-3.1437 0-1.6617 0.08982-3.1437 0.13473-1.5269 0.4491-2.47 1.3024-0.494 2.8742-1.1227t3.2335-1.976q1.6617-1.3922 3.1886-3.997 1.5718-2.6497 2.7395-7.0957l-1.3473-0.26946q-0.80838 3.0539-1.976 5.3892-1.1677 2.3353-3.1886 3.7724-1.976 1.4371-5.2544 1.8862-0.4491-2.8742-0.67365-6.0628-0.17964-3.2335-0.17964-6.2425 0.04491-3.009 0.22455-5.2994 0.22455-2.3353 0.49401-3.4131 3.8173 0.13473 7.2754 0.26946 3.4581 0.08982 6.9161 0.17964 3.503 0.04491 7.2754 0.04491 2.6048 0 5.5688-0.04491 3.009-0.04491 5.8383-0.08982 2.8742-0.08982 5.0748-0.13473 2.2006-0.08982 3.2335-0.17964 0.4491 1.0778 0.67365 2.6497 0.22455 1.5718 0.22455 3.2784 0.04491 1.6617-0.13473 3.1437-0.17964 1.4371-0.58383 2.2455-3.7275 0.85329-6.467 4.3563-2.6946 3.503-4.4012 10.06l1.3473 0.31437q0.8982-3.2784 2.1108-5.8383 1.2575-2.5599 3.0988-3.997 1.8862-1.4371 4.6257-1.2575 0.26946 1.8413 0.40419 4.2215 0.13473 2.3353 0.13473 4.8503 0 2.515-0.08982 4.8503-0.08982 2.2904-0.26946 4.0868-0.17964 1.7515-0.40419 2.6048-3.4131-0.0449-6.467-0.22455-3.009-0.13472-6.2425-0.31436-3.2335-0.13473-7.2754-0.13473-8.8023 0-13.967 0.22455-5.1646 0.22454-7.3203 0.44909z"/>
   <path d="m-18.514 113.61q-0.40419-1.0778-0.58383-2.5598-0.17964-1.482-0.22455-3.0539t0.08982-2.9191q0.17964-1.3922 0.4491-2.2006 0.53892-0.17964 1.2126-0.71856 0.71856-0.58382 1.2126-2.0209 0.53892-1.4371 0.53892-4.2215 0-2.6946-0.4491-4.1766-0.40419-1.482-1.0778-2.1108t-1.4371-0.71856q-0.40419-0.94311-0.58383-2.3802-0.17964-1.482-0.17964-3.0539 0.04491-1.5718 0.26946-3.009 0.22455-1.482 0.67365-2.4251 1.0778 0.08982 2.7844 0.22455 1.7066 0.08982 3.6377 0.22455 1.976 0.08982 3.8173 0.17964 1.8413 0.04491 3.2335 0.04491 2.0209 0 4.1766-0.08982 2.2006-0.13473 4.0419-0.31437 1.8862-0.17964 3.009-0.26946 0.40419 0.94311 0.53892 2.5149 0.17964 1.5718 0.13473 3.3233-0.04491 1.7066-0.22455 3.2784-0.17964 1.5718-0.53892 2.5149-1.0778 0-1.6168 0.85329-0.49401 0.80838-0.67365 2.1557-0.13473 1.3473-0.13473 2.8742v4.6706h1.3024q-0.08982-2.1108 0-4.0868 0.13473-1.976 0.31437-2.8293 2.0659-0.35928 4.6706-0.4491 2.6497-0.13473 5.2994 0 2.6946 0.08982 4.8053 0.4491 0.26946 1.1677 0.40419 3.3233 0.17964 2.1108 0.17964 4.7155 0.04491 2.5599 0 5.0748-0.04491 2.47-0.22455 4.4012-0.13473 1.9311-0.35928 2.7844-4.491-0.0898-9.3861-0.40418-4.8503-0.26946-9.9251-0.26946-2.5149 0-5.4341 0.0449-2.8742 0.0898-5.6586 0.17964-2.7844 0.13473-4.9401 0.22454-2.1557 0.13473-3.1437 0.22455z"/>
   <path d="m48.357 114.28q-6.3772 0-9.5209-1.5269-3.0988-1.5718-3.1886-5.5239-0.58383 1.6617-0.40419 3.0988 0.22455 1.4371 0.71856 2.8293-4.8053 0.13473-7.9939 0.26945-3.1886 0.17964-5.7934 0.13473-0.67365-3.5928-0.76347-7.0957-0.04491-3.5479 0.53892-7.4999 2.47 0 4.9401 0.49401 2.47 0.49401 4.6706 1.3922 2.2006 0.85329 3.7724 2.1108l0.8982-0.9431q-1.5269-1.2126-3.3233-2.0209-1.7515-0.85329-3.5479-1.4371-2.2904-0.80838-4.1766-2.0658-1.8413-1.2575-2.9191-3.1437-1.0778-1.8862-1.0778-4.491 0-3.2335 1.482-5.8383 1.482-2.6497 4.8503-4.1766 3.4131-1.5718 9.1616-1.5718 5.7035 0 8.7125 1.6168 3.009 1.5718 3.0988 5.8383 0.62874-1.7066 0.40419-3.1886-0.22455-1.482-0.71856-3.1437 3.2335-0.04491 5.3892-0.08982 2.1557-0.08982 3.8173-0.17964 1.6617-0.08982 3.3682-0.08982 0.67365 3.2335 0.71856 7.0059 0.08982 3.7275-0.49401 7.6347-2.5599-0.04491-4.5808-0.4491-1.976-0.4491-3.6826-1.3024-1.7066-0.85329-3.503-2.1108l-0.80838 1.0329q1.7066 1.2575 3.503 2.1557 1.7964 0.85329 3.3682 1.5718 2.3353 1.0329 3.9521 2.2904 1.6168 1.2575 2.47 3.0539 0.8982 1.7964 0.8982 4.491 0 3.7275-1.3024 5.9281-1.2575 2.2006-3.3682 3.2784-2.1108 1.0329-4.6257 1.3473-2.47 0.31437-4.9401 0.31437z"/>
  </g>
 </g>
</svg>
